<svg preserveAspectRatio="none" width="100%" height="100%" overflow="visible" style="display: block;" viewBox="0 0 90 35" fill="none" xmlns="http://www.w3.org/2000/svg">
<g id="elm-logo-white 1" clip-path="url(#clip0_0_4)">
<path id="Vector" d="M65.3048 35H68.5771V19.2161L65.3048 21.0775V35Z" fill="var(--fill-0, white)"/>
<path id="Vector_2" d="M57.6367 22.9926H54.0371C51.6047 22.9926 49.6413 24.9401 49.6413 27.3286V30.6532C49.6413 33.0526 51.6156 34.9892 54.0371 34.9892H62.0434V32.138H53.7971C53.3063 32.138 52.9136 31.7507 52.9136 31.2665V30.3305H62.0434V27.3286C62.0434 24.9293 60.0691 22.9926 57.6476 22.9926H57.6367ZM58.7602 28.1356H52.9136V26.7153C52.9136 26.2312 53.3063 25.8438 53.7971 25.8438H57.8875C58.3784 25.8438 58.7711 26.2312 58.7711 26.7153V28.1356H58.7602Z" fill="var(--fill-0, white)"/>
<path id="Vector_3" d="M85.6042 22.9926H82.8772L81.0338 24.0363C80.2594 23.38 79.2668 22.9926 78.1651 22.9926H74.8273H71.8604V34.9892H75.1327V25.8438H76.9325H78.405C78.885 25.8438 79.2886 26.2312 79.2886 26.7153V34.9892H82.5609V27.3286C82.5609 26.8122 82.4627 26.3065 82.2991 25.8438H85.8441C86.335 25.8438 86.7277 26.2312 86.7277 26.7153V34.9892H90V27.3286C90 24.9293 88.0366 22.9926 85.6042 22.9926Z" fill="var(--fill-0, white)"/>
<path id="Vector_4" d="M81.6883 14.6649V10.0384C81.6883 9.55426 82.081 9.16692 82.5718 9.16692H86.7386V6.30495H82.8227C80.3903 6.30495 78.4269 8.25238 78.4269 10.6409V14.6542H76.0271C75.5472 14.6542 75.1436 14.2668 75.1436 13.7827V1.73225L71.8713 3.59361V13.1801C71.8713 13.6966 71.9695 14.2023 72.1331 14.6542H68.588V6.31571H62.2615C59.8291 6.31571 57.8657 8.26314 57.8657 10.6517V14.6649H51.092L49.4231 17.5269H71.5659L73.4093 16.4832C74.1837 17.1396 75.1763 17.5269 76.278 17.5269H90.0218V14.6757H81.7101L81.6883 14.6649ZM65.3048 14.6649H61.138V10.0384C61.138 9.55426 61.5307 9.16692 62.0216 9.16692H65.3157V14.6542L65.3048 14.6649Z" fill="var(--fill-0, white)"/>
<path id="Vector_5" d="M24.6079 3.49677V10.4903L30.7708 6.99354V0L24.6079 3.49677Z" fill="var(--fill-0, white)"/>
<path id="Vector_6" d="M30.749 20.9806L24.6079 24.5097V31.5032L18.445 35L12.304 31.5032L18.445 28.0065V20.9806L12.304 17.4839L6.14107 20.9806V13.9871L12.304 10.4903L18.445 13.9871L24.6079 10.4903V17.4839L30.749 20.9806Z" fill="var(--fill-0, white)"/>
<path id="Vector_7" d="M36.9119 17.4839L30.749 20.9806L36.9119 24.5097L43.0857 20.9806V13.9871L36.9119 10.4903V17.4839Z" fill="var(--fill-0, white)"/>
<path id="Vector_8" d="M0 31.5032L6.14107 35L12.304 31.5032L6.14107 28.0065L0 31.5032Z" fill="var(--fill-0, white)"/>
</g>
<defs>
<clipPath id="clip0_0_4">
<rect width="90" height="35" fill="white"/>
</clipPath>
</defs>
</svg>
