<svg preserveAspectRatio="none" width="100%" height="100%" overflow="visible" style="display: block;" viewBox="0 0 119.002 48.0001" fill="none" xmlns="http://www.w3.org/2000/svg">
<g id="logo1">
<path id="Path 1251" d="M86.3451 47.9992H90.6775V26.3507L86.3451 28.9067V47.9992Z" fill="var(--fill-0, #0C1D46)"/>
<path id="Path 1252" d="M76.2022 31.5381H71.4366C69.8944 31.5381 68.4153 32.1649 67.3248 33.2807C66.2343 34.3965 65.6217 35.9099 65.6217 37.4878V42.0501C65.6215 42.8315 65.7719 43.6053 66.0641 44.3272C66.3563 45.0491 66.7846 45.7052 67.3246 46.2577C67.8646 46.8102 68.5057 47.2483 69.2112 47.5473C69.9168 47.8463 70.673 48.0002 71.4366 48.0001H82.0163V44.0822H71.1134C70.8052 44.0822 70.5097 43.9571 70.2918 43.7341C70.0739 43.5112 69.9514 43.2087 69.9514 42.8934V41.606H82.0188V37.4878C82.0189 36.7066 81.8686 35.933 81.5766 35.2112C81.2845 34.4894 80.8563 33.8336 80.3165 33.2812C79.7767 32.7287 79.1359 32.2904 78.4305 31.9913C77.7252 31.6923 76.9691 31.5382 76.2056 31.5381M77.6908 38.5917H69.9532V36.6413C69.9534 36.3259 70.076 36.0233 70.2941 35.8004C70.5121 35.5775 70.8077 35.4524 71.1159 35.4524H76.5272C76.8354 35.4524 77.131 35.5775 77.349 35.8004C77.5671 36.0233 77.6897 36.3259 77.6899 36.6413L77.6908 38.5917Z" fill="var(--fill-0, #0C1D46)"/>
<path id="Path 1253" d="M113.186 31.539H109.578L107.143 32.977C106.09 32.0484 104.746 31.538 103.356 31.539H95.0116V47.9992H99.3396V35.4558H103.676C103.984 35.4565 104.279 35.5821 104.497 35.8049C104.715 36.0278 104.838 36.3297 104.838 36.6448V47.9992H109.171V37.4878C109.172 36.795 109.054 36.1074 108.824 35.4558H113.511C113.819 35.4558 114.115 35.5811 114.333 35.8041C114.551 36.027 114.673 36.3294 114.674 36.6448V47.993H119.002V37.4818C119.002 35.9038 118.389 34.3905 117.299 33.2747C116.208 32.1589 114.729 31.5318 113.187 31.5318" fill="var(--fill-0, #0C1D46)"/>
<path id="Path 1254" d="M108.004 20.1102V13.7668C108.004 13.4514 108.127 13.1488 108.345 12.9257C108.563 12.7026 108.858 12.5772 109.166 12.577H114.672V8.65838H109.486C108.723 8.65838 107.967 8.81217 107.261 9.11119C106.556 9.41022 105.915 9.8485 105.375 10.401C104.835 10.9535 104.407 11.6094 104.115 12.3313C103.823 13.0532 103.673 13.8269 103.673 14.6081V20.1137H100.5C100.192 20.1125 99.8968 19.9868 99.6789 19.7639C99.4611 19.5411 99.3382 19.2391 99.3371 18.9239V2.38137L95.0047 4.93741V18.0817C95.0036 18.7734 95.1209 19.46 95.3513 20.1102H90.6672V8.65838H82.3065C81.543 8.65826 80.7869 8.81191 80.0815 9.11076C79.3761 9.40961 78.735 9.84782 78.1951 10.4001C77.6551 10.9525 77.2268 11.6081 76.9345 12.3298C76.6422 13.0515 76.4917 13.8252 76.4916 14.6064V20.1083H67.5357L65.3227 24.0288H94.5957L97.0287 22.5899C98.0817 23.5193 99.4264 24.0301 100.817 24.0288H118.992V20.1111H107.995L108.004 20.1102ZM80.83 20.1102V13.7694C80.83 13.4538 80.9525 13.1512 81.1706 12.928C81.3887 12.7049 81.6845 12.5796 81.9929 12.5796H86.3434V20.1102H80.83Z" fill="var(--fill-0, #0C1D46)"/>
<path id="Path 1255" d="M24.3853 38.4073V28.7756L32.5396 33.611V43.2027L24.3853 38.4073Z" fill="var(--fill-0, #F16845)"/>
<path id="Path 1256" d="M24.3853 19.1836L32.5396 14.3882V23.9801L24.3853 28.7764V19.1836Z" fill="var(--fill-0, #6E43B5)"/>
<path id="Path 1257" d="M40.6931 9.59193L32.5387 14.3873V4.79542L40.6931 0V9.59193Z" fill="var(--fill-0, #6E43B5)"/>
<path id="Path 1258" d="M8.11538 19.1836L16.2698 14.3882V23.9801L8.11538 28.7764V19.1836Z" fill="var(--fill-0, #6E43B5)"/>
<path id="Path 1259" d="M16.2698 23.9793V14.3873L24.3853 19.1828V28.7747L16.2698 23.9793Z" fill="var(--fill-0, #C18FD6)"/>
<path id="Path 1260" d="M48.8085 23.9793V14.3873L56.9629 19.1828V28.7747L48.8085 23.9793Z" fill="var(--fill-0, #0070C7)"/>
<path id="Path 1261" d="M0 43.2027L8.11538 38.4073L16.2698 43.2027L8.11538 47.9992L0 43.2027Z" fill="var(--fill-0, #F7A573)"/>
<path id="Path 1262" d="M16.2698 43.2027L24.3853 38.4073L32.5396 43.2027L24.3853 47.9992L16.2698 43.2027Z" fill="var(--fill-0, #F7A573)"/>
<path id="Path 1263" d="M24.3853 28.7756L32.5396 23.9793L40.6551 28.7756L32.5396 33.611L24.3853 28.7756Z" fill="var(--fill-0, #2E9FDA)"/>
<path id="Path 1264" d="M40.6542 28.7756L48.8085 23.9793L56.9629 28.7756L48.8085 33.611L40.6542 28.7756Z" fill="var(--fill-0, #2E9FDA)"/>
</g>
</svg>
