<svg preserveAspectRatio="none" width="100%" height="100%" overflow="visible" style="display: block;" viewBox="0 0 137.34 54.1411" fill="none" xmlns="http://www.w3.org/2000/svg">
<g id="logo1">
<path id="Path 1251" d="M99.651 54.1401H104.651V29.7219L99.651 32.605V54.1401Z" fill="var(--fill-0, #0C1D46)"/>
<path id="Path 1252" d="M87.9451 35.573H82.4451C80.6652 35.573 78.9581 36.28 77.6996 37.5386C76.441 38.7971 75.734 40.5041 75.734 42.2839V47.4299C75.7339 48.3113 75.9074 49.184 76.2446 49.9983C76.5818 50.8126 77.0761 51.5526 77.6993 52.1758C78.3225 52.799 79.0624 53.2932 79.8767 53.6304C80.691 53.9676 81.5637 54.1412 82.4451 54.1411H94.655V49.7219H82.072C81.7164 49.7219 81.3753 49.5808 81.1238 49.3293C80.8723 49.0779 80.731 48.7368 80.731 48.3811V46.929H94.658V42.2839C94.6581 41.4028 94.4847 40.5302 94.1476 39.7161C93.8105 38.9019 93.3163 38.1622 92.6934 37.5391C92.0704 36.9159 91.3308 36.4216 90.5167 36.0842C89.7027 35.7469 88.8301 35.5731 87.949 35.573M89.663 43.5291H80.733V41.3291C80.7333 40.9734 80.8748 40.6321 81.1265 40.3806C81.3781 40.1292 81.7192 39.988 82.075 39.988H88.3201C88.6758 39.988 89.0169 40.1292 89.2686 40.3806C89.5202 40.6321 89.6617 40.9734 89.662 41.3291L89.663 43.5291Z" fill="var(--fill-0, #0C1D46)"/>
<path id="Path 1253" d="M130.628 35.574H126.464L123.654 37.196C122.439 36.1486 120.887 35.5729 119.283 35.574H109.653V54.1401H114.648V39.9919H119.653C120.008 39.9927 120.349 40.1344 120.6 40.3857C120.852 40.6371 120.993 40.9776 120.994 41.333V54.1401H125.994V42.2839C125.995 41.5025 125.86 40.7269 125.594 39.9919H131.003C131.359 39.9919 131.7 40.1333 131.952 40.3848C132.203 40.6362 132.345 40.9773 132.345 41.333V54.1331H137.34V42.2771C137.34 40.4972 136.633 38.7903 135.374 37.5317C134.116 36.2732 132.409 35.5659 130.629 35.5659" fill="var(--fill-0, #0C1D46)"/>
<path id="Path 1254" d="M124.648 22.6831V15.5281C124.648 15.1723 124.789 14.831 125.041 14.5793C125.292 14.3277 125.633 14.1863 125.989 14.186H132.343V9.76611H126.358C125.477 9.76611 124.604 9.93957 123.79 10.2769C122.976 10.6141 122.236 11.1085 121.613 11.7317C120.99 12.3549 120.496 13.0947 120.159 13.9089C119.822 14.7231 119.649 15.5958 119.649 16.4771V22.687H115.987C115.632 22.6857 115.291 22.5439 115.04 22.2925C114.788 22.0411 114.646 21.7005 114.645 21.345V2.68604L109.645 5.56909V20.395C109.644 21.1752 109.779 21.9497 110.045 22.6831H104.639V9.76611H94.99C94.1088 9.76598 93.2363 9.93928 92.4221 10.2764C91.608 10.6135 90.8682 11.1077 90.245 11.7307C89.6218 12.3537 89.1275 13.0932 88.7902 13.9072C88.4528 14.7213 88.2792 15.5939 88.2791 16.4751V22.6809H77.943L75.389 27.103H109.173L111.981 25.48C113.196 26.5283 114.748 27.1045 116.353 27.103H137.329V22.6841H124.637L124.648 22.6831ZM93.286 22.6831V15.531C93.286 15.1751 93.4274 14.8337 93.6791 14.582C93.9308 14.3304 94.2721 14.189 94.6281 14.189H99.649V22.6831H93.286Z" fill="var(--fill-0, #0C1D46)"/>
<path id="Path 1255" d="M28.1431 43.321V32.457L37.554 37.9111V48.73L28.1431 43.321Z" fill="var(--fill-0, #F16845)"/>
<path id="Path 1256" d="M28.1431 21.6379L37.554 16.229V27.0481L28.1431 32.458V21.6379Z" fill="var(--fill-0, #6E43B5)"/>
<path id="Path 1257" d="M46.964 10.8191L37.553 16.228V5.40894L46.964 0V10.8191Z" fill="var(--fill-0, #6E43B5)"/>
<path id="Path 1258" d="M9.36597 21.6379L18.777 16.229V27.0481L9.36597 32.458V21.6379Z" fill="var(--fill-0, #6E43B5)"/>
<path id="Path 1259" d="M18.777 27.0471V16.228L28.1431 21.637V32.4561L18.777 27.0471Z" fill="var(--fill-0, #C18FD6)"/>
<path id="Path 1260" d="M56.33 27.0471V16.228L65.741 21.637V32.4561L56.33 27.0471Z" fill="var(--fill-0, #0070C7)"/>
<path id="Path 1261" d="M0 48.73L9.36597 43.321L18.777 48.73L9.36597 54.1401L0 48.73Z" fill="var(--fill-0, #F7A573)"/>
<path id="Path 1262" d="M18.777 48.73L28.1431 43.321L37.554 48.73L28.1431 54.1401L18.777 48.73Z" fill="var(--fill-0, #F7A573)"/>
<path id="Path 1263" d="M28.1431 32.457L37.554 27.0471L46.92 32.457L37.554 37.9111L28.1431 32.457Z" fill="var(--fill-0, #2E9FDA)"/>
<path id="Path 1264" d="M46.9191 32.457L56.33 27.0471L65.741 32.457L56.33 37.9111L46.9191 32.457Z" fill="var(--fill-0, #2E9FDA)"/>
</g>
</svg>
