<svg preserveAspectRatio="none" width="100%" height="100%" overflow="visible" style="display: block;" viewBox="0 0 50.5096 16.8429" fill="none" xmlns="http://www.w3.org/2000/svg">
<g id="Mada">
<path id="Vector" d="M21.3661 9.71242H7.4816e-05V16.8302H21.3661V9.71242Z" fill="var(--fill-0, #84B740)"/>
<path id="Vector_2" d="M21.3663 1.5009e-05H0.000244141V7.12415H21.3663V1.5009e-05Z" fill="var(--fill-0, #259BD6)"/>
<path id="Vector_3" d="M42.7323 15.3838L42.6372 15.4028C42.3073 15.4663 42.1868 15.4917 41.9457 15.4917C41.3874 15.4917 40.7277 15.2062 40.7277 13.8613C40.7277 13.1698 40.8419 12.25 41.8823 12.25H41.8886C42.0662 12.2626 42.2692 12.2817 42.6499 12.3959L42.7323 12.4212V15.3838ZM42.9036 8.67837L42.7323 8.71009V11.1969L42.5801 11.1525L42.5357 11.1398C42.3644 11.089 41.9711 10.9748 41.5904 10.9748C39.5097 10.9748 39.0719 12.5481 39.0719 13.8676C39.0719 15.6756 40.0869 16.716 41.8569 16.716C42.6055 16.716 43.1574 16.6399 43.7156 16.4559C44.2295 16.291 44.4134 16.0563 44.4134 15.5551V8.41827C43.9186 8.50708 43.4048 8.5959 42.9036 8.67837Z" fill="var(--fill-0, #27292D)"/>
<path id="Vector_4" d="M48.9175 15.4282L48.8287 15.4536L48.5115 15.5361C48.2133 15.6122 47.9469 15.6566 47.7439 15.6566C47.2554 15.6566 46.9636 15.4155 46.9636 15.0032C46.9636 14.7367 47.0841 14.2863 47.8834 14.2863H48.9175V15.4282ZM48.1879 10.9431C47.5472 10.9431 46.8874 11.0573 46.0691 11.3111L45.5362 11.4697L45.7138 12.675L46.234 12.5037C46.7796 12.3261 47.4584 12.2119 47.9659 12.2119C48.1943 12.2119 48.8921 12.2119 48.8921 12.9668V13.2967H47.9215C46.1516 13.2967 45.3332 13.8613 45.3332 15.073C45.3332 16.107 46.0881 16.7287 47.3569 16.7287C47.7502 16.7287 48.2958 16.6526 48.7652 16.5384L48.7906 16.5321L48.816 16.5384L48.9746 16.5638C49.4694 16.6526 49.9832 16.7414 50.4844 16.8366V12.878C50.4844 11.5965 49.7105 10.9431 48.1879 10.9431Z" fill="var(--fill-0, #27292D)"/>
<path id="Vector_5" d="M36.591 15.4282L36.5022 15.4536L36.185 15.5361C35.8868 15.6122 35.6267 15.6566 35.4174 15.6566C34.9289 15.6566 34.6371 15.4155 34.6371 15.0032C34.6371 14.7367 34.7576 14.2863 35.5506 14.2863H36.5846V15.4282H36.591ZM35.8678 10.9431C35.2207 10.9431 34.5673 11.0573 33.7489 11.3111L33.216 11.4697L33.3937 12.675L33.9139 12.5037C34.4594 12.3261 35.1382 12.2119 35.6457 12.2119C35.8741 12.2119 36.5719 12.2119 36.5719 12.9668V13.2967H35.6013C33.8314 13.2967 33.0067 13.8613 33.0067 15.073C33.0067 16.107 33.7616 16.7287 35.0367 16.7287C35.43 16.7287 35.9756 16.6526 36.4451 16.5384L36.4704 16.5321L36.4958 16.5384L36.6481 16.5638C37.1492 16.6526 37.6567 16.7414 38.1579 16.8429V12.8843C38.1642 11.5902 37.3903 10.9431 35.8678 10.9431Z" fill="var(--fill-0, #27292D)"/>
<path id="Vector_6" d="M29.9114 10.9558C29.1057 10.9558 28.4396 11.2223 28.1922 11.3364L28.1288 11.3682L28.0717 11.3238C27.7291 11.0763 27.228 10.9495 26.5301 10.9495C25.9148 10.9495 25.3375 11.0383 24.7095 11.2223C24.1702 11.3872 23.9609 11.6473 23.9609 12.1358V16.6589H25.6483V12.4783L25.7308 12.453C26.0734 12.3388 26.2764 12.3197 26.473 12.3197C26.9615 12.3197 27.2089 12.5798 27.2089 13.0873V16.6653H28.871V13.0176C28.871 12.8019 28.8266 12.675 28.8203 12.6496L28.7632 12.5418L28.8774 12.491C29.1311 12.3768 29.4102 12.3197 29.7021 12.3197C30.0383 12.3197 30.438 12.453 30.438 13.0873V16.6653H32.0937V12.9224C32.0937 11.5965 31.3832 10.9558 29.9114 10.9558Z" fill="var(--fill-0, #27292D)"/>
<path id="Vector_7" d="M47.6739 4.64369C47.4265 4.64369 47.0141 4.61832 46.6906 4.55488L46.5954 4.53585V2.09347C46.5954 1.89047 46.5574 1.76359 46.551 1.74456L46.5003 1.64306L46.6081 1.59865C46.6335 1.58596 46.6589 1.57962 46.6906 1.56693L46.7096 1.55424C46.7477 1.54155 46.7857 1.52887 46.8238 1.51618C46.8428 1.50984 46.8555 1.50349 46.8682 1.50349C47.2425 1.40199 47.5851 1.41468 47.7373 1.40199H47.7437C48.7777 1.40199 48.8982 2.32185 48.8982 3.01333C48.8919 4.35822 48.2258 4.64369 47.6739 4.64369ZM47.6675 0C47.6548 0 47.6358 0 47.6231 0C46.6525 0 45.6565 0.266443 45.3013 0.786638C45.111 1.04039 45.0031 1.35758 44.9968 1.73187V4.25037C44.9968 4.46607 44.9524 4.54854 44.946 4.56757L44.8889 4.67541H41.8249V2.92451H41.8185C41.7804 1.07845 40.6893 0.0634384 39.1097 0.0634384H38.9257H37.5681C37.5047 0.513851 37.4539 0.831044 37.3905 1.28146H38.9257C39.7314 1.28146 40.1564 1.96659 40.1564 3.01967V4.78326L40.0486 4.72616C40.0295 4.71982 39.8963 4.67541 39.687 4.67541H37.0353C36.9845 5.01164 36.9211 5.44936 36.8513 5.88709H45.0031C45.2822 5.82999 45.6058 5.77924 45.8849 5.73484C46.2973 5.93784 47.0649 6.04568 47.5914 6.04568C49.3613 6.04568 50.5096 4.85938 50.5096 3.03236C50.5032 1.22436 49.3931 0.0380631 47.6675 0Z" fill="var(--fill-0, #27292D)"/>
<path id="Vector_8" d="M33.3751 6.62929H33.4513C35.2212 6.62929 36.0459 6.04566 36.0459 4.60561C36.0459 3.57156 35.291 2.74686 34.0222 2.74686H32.3919C31.9034 2.74686 31.6116 2.46773 31.6116 1.99829C31.6116 1.68109 31.7321 1.28778 32.5314 1.28778H36.0967C36.1728 0.824677 36.2108 0.532859 36.2806 0.0697585H32.5758C30.8503 0.0697585 29.9812 0.792956 29.9812 1.99829C29.9812 3.19093 30.7361 3.81263 32.0049 3.81263H33.6352C34.1237 3.81263 34.4155 4.1996 34.4155 4.60561C34.4155 4.87205 34.295 5.42396 33.502 5.42396H33.2292L28.0083 5.41128H27.0567C26.251 5.41128 25.6864 4.95452 25.6864 3.8951V3.16556C25.6864 2.06173 26.1241 1.37659 27.0567 1.37659H28.6046C28.6744 0.907146 28.7188 0.608985 28.7822 0.164916H26.8537H26.6697C25.0901 0.164916 23.9989 1.22434 23.9609 3.0704V3.14018V3.8951C23.9989 5.74116 25.0901 6.62295 26.6697 6.62295H26.8537H28.2113L31.0406 6.62929H32.7281H33.3751Z" fill="var(--fill-0, #27292D)"/>
</g>
</svg>
